<?xml version="1.0" standalone="no"?>
<svg version="1.0" xmlns="http://www.w3.org/2000/svg"
 width="64.000000pt" height="64.000000pt" viewBox="0 0 64.000000 64.000000"
 preserveAspectRatio="xMidYMid meet">

<g transform="translate(0.000000,64.000000) scale(0.100000,-0.100000)"
fill="#000000" stroke="none">
<path d="M185 616 c-63 -30 -127 -96 -157 -161 -32 -70 -32 -190 0 -260 29
-63 92 -129 157 -163 43 -23 62 -27 140 -27 79 0 96 4 143 28 67 35 121 91
152 156 30 64 18 85 -29 52 -101 -72 -234 -64 -319 18 -55 54 -76 104 -77 181
0 55 5 74 33 123 29 52 34 77 14 77 -4 0 -29 -11 -57 -24z"/>
<path d="M540 594 c0 -9 -9 -18 -20 -21 -24 -6 -27 -33 -4 -33 9 0 18 -9 21
-20 3 -11 11 -20 18 -20 7 0 15 9 18 20 3 11 12 20 21 20 23 0 20 27 -4 33
-11 3 -20 12 -20 21 0 9 -7 16 -15 16 -8 0 -15 -7 -15 -16z"/>
<path d="M375 470 c-9 -17 -27 -36 -40 -42 -32 -15 -32 -35 1 -50 14 -7 32
-25 40 -40 18 -35 37 -36 52 -3 6 13 25 31 42 40 37 19 38 31 2 52 -16 9 -36
29 -45 45 -21 36 -33 35 -52 -2z"/>
</g>
</svg>
