<?xml version="1.0" standalone="no"?>
<svg version="1.0" xmlns="http://www.w3.org/2000/svg"
 width="128.000000pt" height="128.000000pt" viewBox="0 0 128.000000 128.000000"
 preserveAspectRatio="xMidYMid meet">

<g transform="translate(0.000000,128.000000) scale(0.100000,-0.100000)"
fill="#000000" stroke="none">
<path d="M602 1264 c-20 -13 -22 -24 -22 -94 0 -88 12 -110 60 -110 48 0 60
22 60 110 0 70 -2 81 -22 94 -12 9 -29 16 -38 16 -9 0 -26 -7 -38 -16z"/>
<path d="M190 1090 c-33 -33 -25 -61 33 -118 56 -55 92 -66 121 -36 31 30 20
66 -37 122 -57 57 -85 64 -117 32z"/>
<path d="M972 1057 c-55 -56 -66 -92 -36 -121 30 -31 66 -20 122 37 57 57 64
85 32 117 -33 33 -61 25 -118 -33z"/>
<path d="M536 941 c-104 -42 -167 -108 -202 -213 -33 -100 2 -233 81 -313 122
-121 328 -121 450 0 121 122 121 328 0 450 -84 83 -227 116 -329 76z"/>
<path d="M16 678 c-20 -28 -20 -48 0 -76 13 -20 24 -22 94 -22 88 0 110 12
110 60 0 48 -22 60 -110 60 -70 0 -81 -2 -94 -22z"/>
<path d="M1076 685 c-9 -9 -16 -29 -16 -45 0 -50 22 -61 113 -58 77 3 82 4 97
31 13 24 13 30 0 55 -15 26 -20 27 -97 30 -64 2 -84 -1 -97 -13z"/>
<path d="M222 307 c-57 -57 -64 -85 -32 -117 33 -33 61 -25 118 33 55 56 66
92 36 121 -30 31 -66 20 -122 -37z"/>
<path d="M936 344 c-31 -30 -20 -66 37 -122 57 -57 85 -64 117 -32 33 33 25
61 -33 118 -56 55 -92 66 -121 36z"/>
<path d="M595 204 c-12 -13 -15 -33 -13 -97 3 -77 4 -82 31 -97 24 -13 30 -13
55 0 26 15 27 20 30 97 3 91 -8 113 -58 113 -16 0 -36 -7 -45 -16z"/>
</g>
</svg>
